<svg xmlns="http://www.w3.org/2000/svg" viewBox="0 0 500 500">
    <g id="planes">
        <path d="M250,210.9929A144.2657,144.2657,0,0,1,392.9611,192.67a144.125,144.125,0,1,0-287.0788-18.3437,145.5121,145.5121,0,0,0,1.1566,18.3437A144.2657,144.2657,0,0,1,250,210.9929Z"/>
        <path d="M409.4255,200.84a145.5235,145.5235,0,0,0-16.4644-8.17,144.2654,144.2654,0,0,1-87.3487,114.6464A144.2658,144.2658,0,0,1,250,440.2858,144.125,144.125,0,1,0,409.4255,200.84Z"/>
        <path d="M194.3876,307.3163A144.2654,144.2654,0,0,1,107.0389,192.67,144.1177,144.1177,0,1,0,250,440.2858,144.2658,144.2658,0,0,1,194.3876,307.3163Z"/>
        <path d="M194.3876,307.3163A144.5321,144.5321,0,0,1,250,210.9929,144.2657,144.2657,0,0,0,107.0389,192.67,144.2654,144.2654,0,0,0,194.3876,307.3163Z"/>
        <path d="M250,210.9929a144.5321,144.5321,0,0,1,55.6124,96.3234A144.2654,144.2654,0,0,0,392.9611,192.67,144.2657,144.2657,0,0,0,250,210.9929Z"/>
        <path d="M305.6124,307.3163a144.532,144.532,0,0,1-111.2248,0A144.2658,144.2658,0,0,0,250,440.2858,144.2658,144.2658,0,0,0,305.6124,307.3163Z"/>
        <path d="M250,210.9929a144.5321,144.5321,0,0,0-55.6124,96.3234,144.532,144.532,0,0,0,111.2248,0A144.5321,144.5321,0,0,0,250,210.9929Z"/>
    </g>
    <g id="letters">
        <path d="M249.5908,115.1084h-.04l-2.2608,1.22-.34-1.34,2.8408-1.52h1.5v13.0029h-1.7Z"/>
        <path d="M254.2119,265.5859v1.16l-5.6611,11.8428h-1.82l5.6406-11.503v-.04H246.01v-1.46Z"/>
        <path d="M377.5254,347.1016v-1.08l1.38-1.34c3.32-3.1611,4.8213-4.8418,4.8408-6.8017a2.32,2.32,0,0,0-2.58-2.541,4.427,4.427,0,0,0-2.7607,1.1006l-.5606-1.24a5.7088,5.7088,0,0,1,3.6807-1.32,3.6594,3.6594,0,0,1,3.9814,3.7813c0,2.4-1.74,4.3408-4.4814,6.9814l-1.04.96v.04h5.8417v1.46Z"/>
        <path d="M109.436,345.08a5.88,5.88,0,0,0,2.88.82c2.2607,0,2.9609-1.44,2.9409-2.5195-.02-1.82-1.6606-2.6016-3.3608-2.6016h-.98v-1.32h.98c1.28,0,2.9009-.66,2.9009-2.2,0-1.04-.66-1.96-2.2808-1.96a4.7821,4.7821,0,0,0-2.6006.8594l-.46-1.2793a6.1819,6.1819,0,0,1,3.4008-1c2.5606,0,3.7207,1.5195,3.7207,3.1a3.2286,3.2286,0,0,1-2.4,3.0606v.041a3.3856,3.3856,0,0,1,2.9,3.34c0,2.0811-1.62,3.9014-4.7412,3.9014a6.6111,6.6111,0,0,1-3.38-.88Z"/>
        <path d="M169.7305,235.2827v-3.5405H163.69v-1.1607L169.49,222.28h1.9v8.082h1.8208v1.38h-1.8208v3.5405Zm0-4.9209v-4.3413q0-1.02.06-2.04h-.06c-.4.76-.72,1.32-1.08,1.92l-3.1807,4.4209v.04Z"/>
        <path d="M325.0127,223.76h-4.9609l-.5,3.3408a6.9313,6.9313,0,0,1,1.06-.08,5.4945,5.4945,0,0,1,2.8008.7,3.7056,3.7056,0,0,1,1.86,3.3408,4.511,4.511,0,0,1-4.8409,4.4409,6.3659,6.3659,0,0,1-3.24-.8l.44-1.34a5.8208,5.8208,0,0,0,2.7812.72,2.8686,2.8686,0,0,0,3.08-2.8208c-.02-1.68-1.14-2.88-3.74-2.88a13.4421,13.4421,0,0,0-1.8008.14l.84-6.2417h6.2217Z"/>
        <path d="M253.1924,362.9092a6.3162,6.3162,0,0,0-1.32.08,5.2845,5.2845,0,0,0-4.5215,4.6211h.06a3.9634,3.9634,0,0,1,7.0621,2.7,4.3479,4.3479,0,0,1-4.3213,4.5811c-2.7808,0-4.6011-2.16-4.6011-5.541a8.1752,8.1752,0,0,1,2.2-5.8613,7.08,7.08,0,0,1,4.1616-1.9209,8.557,8.557,0,0,1,1.28-.1Zm-.5,7.5019c0-1.86-1.0606-2.9814-2.6812-2.9814a2.8967,2.8967,0,0,0-2.52,1.6006,1.4976,1.4976,0,0,0-.2.78c.04,2.1407,1.02,3.7207,2.8609,3.7207C251.6719,373.5312,252.6924,372.2715,252.6924,370.4111Z"/>
    </g>
</svg>