<svg xmlns="http://www.w3.org/2000/svg" viewBox="0 0 500 71.01">
    <path fill="black" d="M194.58,0l-1.53.88-27.69,16-1.53.88V53.26l1.53.88,27.69,16,1.53.88,1.53-.88,27.68-16,1.53-.88V17.75l-1.53-.88L196.11.88,194.58,0Zm31.51,8.5V5.85h38V8.5H246.61v47h-3.06V8.5ZM263,27.69h.21A8.61,8.61,0,0,1,265,24.42a12.43,12.43,0,0,1,3.13-2.64,15.46,15.46,0,0,1,4.1-1.7,16.63,16.63,0,0,1,4.7-.53V22.2a12.51,12.51,0,0,0-4.77.41,11.69,11.69,0,0,0-5.11,3.06,23.72,23.72,0,0,0-1.7,2,9.5,9.5,0,0,0-1.22,2.16,13.26,13.26,0,0,0-.76,2.64A21.66,21.66,0,0,0,263,36V55.5h-2.64V19.76H263Zm39,20.72h-.14a11,11,0,0,1-1.81,3A12.88,12.88,0,0,1,297.2,54a14,14,0,0,1-3.86,1.74,16.86,16.86,0,0,1-4.73.63c-3.8,0-6.75-.82-8.83-2.47s-3.13-4.18-3.13-7.61a9.46,9.46,0,0,1,1.25-5.11A9.36,9.36,0,0,1,281.06,38a13.62,13.62,0,0,1,4.25-1.64,42.51,42.51,0,0,1,4.48-.69l4.1-.35a24.51,24.51,0,0,0,4.49-.66,5.77,5.77,0,0,0,2.47-1.25,3.64,3.64,0,0,0,1-2.05,19.48,19.48,0,0,0,.21-3.13,6.65,6.65,0,0,0-.56-2.72,6.08,6.08,0,0,0-1.74-2.22,8.44,8.44,0,0,0-3.06-1.53,16.33,16.33,0,0,0-4.58-.56,12,12,0,0,0-7.76,2.37q-3,2.36-3.23,7.16h-2.64q.27-5.91,3.79-8.87t10-2.95c4.32,0,7.46.84,9.43,2.54a8.32,8.32,0,0,1,2.95,6.64V48.9c0,.51,0,1,0,1.53a5,5,0,0,0,.24,1.39,2.08,2.08,0,0,0,.7,1,2.21,2.21,0,0,0,1.39.38A12.52,12.52,0,0,0,309,53v2.23a8.5,8.5,0,0,1-2.15.27,6.35,6.35,0,0,1-2.54-.41A3.34,3.34,0,0,1,302.86,54a4.18,4.18,0,0,1-.66-1.63,11.89,11.89,0,0,1-.17-2.05Zm0-13.21a5,5,0,0,1-3,1.6,34.7,34.7,0,0,1-4.41.62l-4.45.42c-1.3.14-2.6.34-3.9.59a11.67,11.67,0,0,0-3.51,1.29,7.23,7.23,0,0,0-2.54,2.47,7.59,7.59,0,0,0-1,4.07c0,2.64.84,4.6,2.5,5.87A11.08,11.08,0,0,0,288.68,54a13.53,13.53,0,0,0,7.16-1.63,12.64,12.64,0,0,0,4-3.75,11.69,11.69,0,0,0,1.78-4.11,18.05,18.05,0,0,0,.38-2.67Zm11.06-15.44h2.64v7.65h.14a11.36,11.36,0,0,1,2-3.58,13.16,13.16,0,0,1,6.71-4.35,15.35,15.35,0,0,1,4.1-.55,16.22,16.22,0,0,1,5.32.76,10.26,10.26,0,0,1,3.58,2,9.51,9.51,0,0,1,2.19,2.82,12.55,12.55,0,0,1,1.15,3.16,19.36,19.36,0,0,1,.42,3.09c0,1,.07,1.87.07,2.61V55.5h-2.64V32.9a33.15,33.15,0,0,0-.21-3.33,10.19,10.19,0,0,0-1.22-3.86,8.79,8.79,0,0,0-3.06-3.17,10.43,10.43,0,0,0-5.67-1.32,12.44,12.44,0,0,0-5.42,1.12,11.66,11.66,0,0,0-4,3.09,13.52,13.52,0,0,0-2.54,4.73,19.79,19.79,0,0,0-.87,6V55.5h-2.64Zm37.34,23.85a10.57,10.57,0,0,0,3.65,7.69,10.63,10.63,0,0,0,3.65,2.05,14.32,14.32,0,0,0,4.52.69,23.71,23.71,0,0,0,3.72-.31,12.75,12.75,0,0,0,3.68-1.15,7.53,7.53,0,0,0,2.82-2.33,6.17,6.17,0,0,0,1.11-3.79,5.61,5.61,0,0,0-1.8-4.52,12.93,12.93,0,0,0-4.56-2.36,45.85,45.85,0,0,0-5.91-1.36,29.75,29.75,0,0,1-5.91-1.56,12.1,12.1,0,0,1-4.56-3,7.86,7.86,0,0,1-1.8-5.59,7.79,7.79,0,0,1,1.18-4.42,8.86,8.86,0,0,1,3-2.82,13.85,13.85,0,0,1,4.14-1.49,23.8,23.8,0,0,1,4.59-.45,21.34,21.34,0,0,1,5.22.62,11.25,11.25,0,0,1,4.2,2,9.5,9.5,0,0,1,2.78,3.55,12.08,12.08,0,0,1,1,5.21h-2.64a10,10,0,0,0-.8-4.17,7.24,7.24,0,0,0-2.22-2.82,10,10,0,0,0-3.38-1.6,16.42,16.42,0,0,0-4.17-.52,19.78,19.78,0,0,0-3.65.35,10.59,10.59,0,0,0-3.3,1.18,7.35,7.35,0,0,0-2.4,2.16,5.36,5.36,0,0,0-.94,3.2,5.47,5.47,0,0,0,1,3.47,7.46,7.46,0,0,0,2.75,2.12A18.21,18.21,0,0,0,359.29,35l4.28,1q2.64.49,5,1.15a14,14,0,0,1,4,1.81,8.18,8.18,0,0,1,2.67,3,9.56,9.56,0,0,1,1,4.58,8.15,8.15,0,0,1-1.33,4.8,10.29,10.29,0,0,1-3.33,3,14.53,14.53,0,0,1-4.49,1.6,26.89,26.89,0,0,1-4.83.45,19.38,19.38,0,0,1-5.67-.8A12.69,12.69,0,0,1,352,53.11a11.62,11.62,0,0,1-3.06-4,13.45,13.45,0,0,1-1.18-5.5ZM385.89,5.85V55.5h-2.64V5.85ZM418,48.41h-.14a11,11,0,0,1-1.81,3A12.72,12.72,0,0,1,413.18,54a13.74,13.74,0,0,1-3.86,1.74,16.74,16.74,0,0,1-4.72.63c-3.81,0-6.75-.82-8.84-2.47s-3.12-4.18-3.12-7.61A8.94,8.94,0,0,1,397.05,38a13.66,13.66,0,0,1,4.24-1.64,43.08,43.08,0,0,1,4.49-.69l4.1-.35a24.51,24.51,0,0,0,4.49-.66,5.73,5.73,0,0,0,2.46-1.25,3.59,3.59,0,0,0,1.05-2.05,19.48,19.48,0,0,0,.21-3.13,6.65,6.65,0,0,0-.56-2.72,6.08,6.08,0,0,0-1.74-2.22,8.61,8.61,0,0,0-3.06-1.53,16.35,16.35,0,0,0-4.59-.56,12,12,0,0,0-7.75,2.37q-3,2.36-3.23,7.16h-2.65q.28-5.91,3.79-8.87t10-2.95c4.31,0,7.45.84,9.42,2.54a8.33,8.33,0,0,1,3,6.64V48.9q0,.76,0,1.53a5.37,5.37,0,0,0,.25,1.39,2.13,2.13,0,0,0,.69,1,2.25,2.25,0,0,0,1.39.38,12.5,12.5,0,0,0,2-.21v2.23a8.52,8.52,0,0,1-2.16.27,6.3,6.3,0,0,1-2.53-.41A3.34,3.34,0,0,1,418.85,54a4.18,4.18,0,0,1-.66-1.63,11,11,0,0,1-.17-2.05Zm0-13.21a5,5,0,0,1-3,1.6,34.7,34.7,0,0,1-4.41.62l-4.45.42c-1.3.14-2.6.34-3.9.59a11.47,11.47,0,0,0-3.51,1.29,7.23,7.23,0,0,0-2.54,2.47,7.59,7.59,0,0,0-1,4.07q0,4,2.5,5.87A11.08,11.08,0,0,0,404.67,54a13.53,13.53,0,0,0,7.16-1.63,12.75,12.75,0,0,0,4-3.75,11.48,11.48,0,0,0,1.77-4.11,17.17,17.17,0,0,0,.39-2.67Zm24.2-13.14h-7.79V47a9.81,9.81,0,0,0,.48,3.41,4,4,0,0,0,1.5,1.91,5.26,5.26,0,0,0,2.43.8,24.84,24.84,0,0,0,3.31.07V55.5a24.48,24.48,0,0,1-3.93,0,8,8,0,0,1-3.38-1,6.06,6.06,0,0,1-2.32-2.61,9.78,9.78,0,0,1-.73-4.8v-25h-6.61v-2.3h6.61V8.64h2.64V19.76h7.79Zm2.22,15.57a23.42,23.42,0,0,1,1.08-7.19,18.16,18.16,0,0,1,3.16-6,15.14,15.14,0,0,1,5.15-4.07,17.28,17.28,0,0,1,14,0A15.14,15.14,0,0,1,473,24.49a18,18,0,0,1,3.16,6,23.42,23.42,0,0,1,1.08,7.19,23.89,23.89,0,0,1-1.08,7.24A17.45,17.45,0,0,1,473,50.81a15.15,15.15,0,0,1-5.15,4,17.18,17.18,0,0,1-14,0,15.15,15.15,0,0,1-5.15-4,17.62,17.62,0,0,1-3.16-5.94A23.89,23.89,0,0,1,444.44,37.63Zm2.64,0a20.69,20.69,0,0,0,.91,6.16A16.62,16.62,0,0,0,450.63,49a13,13,0,0,0,4.31,3.65,13.61,13.61,0,0,0,11.82,0A12.89,12.89,0,0,0,471.07,49a16.85,16.85,0,0,0,2.65-5.25,21.5,21.5,0,0,0,0-12.31,16.85,16.85,0,0,0-2.65-5.25,12.78,12.78,0,0,0-4.31-3.65,13.52,13.52,0,0,0-11.82,0,12.87,12.87,0,0,0-4.31,3.65A16.62,16.62,0,0,0,448,31.48,20.67,20.67,0,0,0,447.08,37.63Zm39-9.94h.21a8.74,8.74,0,0,1,1.77-3.27,12.43,12.43,0,0,1,3.13-2.64,15.39,15.39,0,0,1,4.11-1.7,16.56,16.56,0,0,1,4.69-.53V22.2a12.45,12.45,0,0,0-4.76.41,11.63,11.63,0,0,0-5.11,3.06,26,26,0,0,0-1.71,2,9.86,9.86,0,0,0-1.21,2.16,12.62,12.62,0,0,0-.77,2.64,22.88,22.88,0,0,0-.35,3.47V55.5h-2.64V19.76h2.64ZM0,30.68A31.72,31.72,0,0,1,1.6,20.49a24.63,24.63,0,0,1,4.62-8.27,21.45,21.45,0,0,1,7.44-5.53,23.85,23.85,0,0,1,10-2,22.59,22.59,0,0,1,7.58,1.15,19.69,19.69,0,0,1,5.39,2.85,17.15,17.15,0,0,1,3.58,3.72,20.27,20.27,0,0,1,2.12,3.79,17.72,17.72,0,0,1,1,3.06c.19.86.28,1.33.28,1.43H40.54a14.71,14.71,0,0,0-2-5.6,15.37,15.37,0,0,0-3.82-4.21,16.88,16.88,0,0,0-5.11-2.64,19.44,19.44,0,0,0-5.95-.9A19.16,19.16,0,0,0,8.48,14.23a22.29,22.29,0,0,0-4,7.41,28.76,28.76,0,0,0-1.39,9,28.76,28.76,0,0,0,1.39,9,22.29,22.29,0,0,0,4,7.41A19.16,19.16,0,0,0,23.64,54a15.62,15.62,0,0,0,6.78-1.49,18.76,18.76,0,0,0,5.53-4,19.55,19.55,0,0,0,3.79-5.71,19.15,19.15,0,0,0,1.63-6.71h3.06a24,24,0,0,1-2.19,8.21,23,23,0,0,1-4.52,6.5,19.86,19.86,0,0,1-6.36,4.28,19.59,19.59,0,0,1-7.72,1.53,23.85,23.85,0,0,1-10-2,21.45,21.45,0,0,1-7.44-5.53A24.63,24.63,0,0,1,1.6,40.87,31.72,31.72,0,0,1,0,30.68Zm48.68,7a23.42,23.42,0,0,1,1.07-7.19,18.18,18.18,0,0,1,3.17-6,15.1,15.1,0,0,1,5.14-4.07,17.31,17.31,0,0,1,14,0,15.24,15.24,0,0,1,5.15,4.07,18.16,18.16,0,0,1,3.16,6,23.42,23.42,0,0,1,1.08,7.19,23.89,23.89,0,0,1-1.08,7.24,17.62,17.62,0,0,1-3.16,5.94,15.25,15.25,0,0,1-5.15,4,17.2,17.2,0,0,1-14,0,15.12,15.12,0,0,1-5.14-4,17.64,17.64,0,0,1-3.17-5.94A23.89,23.89,0,0,1,48.68,37.63Zm2.64,0a21,21,0,0,0,.9,6.16A16.83,16.83,0,0,0,54.86,49a12.92,12.92,0,0,0,4.32,3.65,13.61,13.61,0,0,0,11.82,0A13,13,0,0,0,75.31,49,16.62,16.62,0,0,0,78,43.79a21.5,21.5,0,0,0,0-12.31,16.62,16.62,0,0,0-2.64-5.25A12.87,12.87,0,0,0,71,22.58a13.52,13.52,0,0,0-11.82,0,12.81,12.81,0,0,0-4.32,3.65,16.83,16.83,0,0,0-2.64,5.25A21,21,0,0,0,51.32,37.63ZM91,5.85V55.5H88.31V5.85ZM97.7,37.63a23.42,23.42,0,0,1,1.08-7.19,18,18,0,0,1,3.16-6,15.14,15.14,0,0,1,5.15-4.07,17.28,17.28,0,0,1,14,0,15.14,15.14,0,0,1,5.15,4.07,18.16,18.16,0,0,1,3.16,6,23.42,23.42,0,0,1,1.08,7.19,23.89,23.89,0,0,1-1.08,7.24,17.62,17.62,0,0,1-3.16,5.94,15.15,15.15,0,0,1-5.15,4,17.18,17.18,0,0,1-14,0,15.15,15.15,0,0,1-5.15-4,17.45,17.45,0,0,1-3.16-5.94A23.89,23.89,0,0,1,97.7,37.63Zm2.64,0a20.69,20.69,0,0,0,.91,6.16A16.62,16.62,0,0,0,103.89,49a12.89,12.89,0,0,0,4.31,3.65,13.61,13.61,0,0,0,11.82,0A13,13,0,0,0,124.33,49,16.62,16.62,0,0,0,127,43.79a21.27,21.27,0,0,0,0-12.31,16.62,16.62,0,0,0-2.64-5.25A12.87,12.87,0,0,0,120,22.58a13.52,13.52,0,0,0-11.82,0,12.78,12.78,0,0,0-4.31,3.65,16.62,16.62,0,0,0-2.64,5.25A20.67,20.67,0,0,0,100.34,37.63Zm39-9.94h.21a8.61,8.61,0,0,1,1.77-3.27,12.43,12.43,0,0,1,3.13-2.64,15.46,15.46,0,0,1,4.1-1.7,16.63,16.63,0,0,1,4.7-.53V22.2a12.51,12.51,0,0,0-4.77.41,11.74,11.74,0,0,0-5.11,3.06,25.73,25.73,0,0,0-1.7,2,9.89,9.89,0,0,0-1.22,2.16,13.26,13.26,0,0,0-.76,2.64,22.88,22.88,0,0,0-.35,3.47V55.5h-2.64V19.76h2.64Z"/>
    <polygon fill="#7c00ff" points="166.89 51.49 166.89 19.52 194.58 35.5 166.89 51.49"/>
    <polygon fill="blue" points="194.58 67.47 166.89 51.49 194.58 35.5 194.58 67.47"/>
    <polygon fill="lime" points="194.58 67.47 222.26 51.49 194.58 35.5 194.58 67.47"/>
    <polygon fill="#ff0" points="222.26 51.49 222.26 19.52 194.58 35.5 222.26 51.49"/>
    <polygon fill="#ff7f00" points="222.26 19.52 194.58 35.5 194.58 3.53 222.26 19.52"/>
    <polygon fill="red" points="194.58 35.5 166.89 19.52 194.58 3.53 194.58 35.5"/>
</svg>
