<svg version="1.1" xmlns="http://www.w3.org/2000/svg" xmlns:xlink="http://www.w3.org/1999/xlink" x="0px" y="0px" viewBox="0 0 500 500">
    <path fill="#FF0000" stroke="#000" stroke-width="5px" d="M301.8,56.8l-19.4,72.5c-20.5-5.5-42.7-5.9-64.7,0l-19.4-72.4C233.4,47.4,268.9,48,301.8,56.8z"/>
    <path fill="#FF4000" stroke="#000" stroke-width="5px" d="M391.4,108.6l-53,53c-15.5-15.5-34.9-26.7-56-32.4l19.4-72.5C335.6,65.9,366.6,83.8,391.4,108.6z"/>
    <path fill="#FF8000" stroke="#000" stroke-width="5px" d="M443.2,198.2l-72.4,19.4c-5.9-22-17.3-41-32.3-56l53-53C415.5,132.6,433.8,163,443.2,198.2z"/>
    <path fill="#FFBF00" stroke="#000" stroke-width="5px" d="M443.2,198.2c9.4,35.2,8.9,70.7,0,103.5l-72.5-19.4c5.5-20.5,5.9-42.7,0-64.7L443.2,198.2z"/>
    <path fill="#FFFF00" stroke="#000" stroke-width="5px" d="M443.2,301.8c-9.1,33.9-27,64.9-51.8,89.7l-53-53c15.5-15.5,26.7-34.9,32.4-56L443.2,301.8z"/>
    <path fill="#80FF00" stroke="#000" stroke-width="5px" d="M391.4,391.4c-24,24.1-54.5,42.3-89.7,51.7l-19.4-72.4c22-5.9,41-17.3,56-32.3L391.4,391.4z"/>
    <path fill="#00FF00" stroke="#000" stroke-width="5px" d="M282.4,370.7l19.4,72.4c-35.2,9.4-70.7,8.9-103.5,0l19.4-72.5C238.2,376.3,260.4,376.6,282.4,370.7z"/>
    <path fill="#00FFFF" stroke="#000" stroke-width="5px" d="M217.6,370.8l-19.4,72.5c-33.9-9.1-64.9-27-89.7-51.8l53-53C177.1,353.9,196.5,365.1,217.6,370.8z"/>
    <path fill="#0000FF" stroke="#000" stroke-width="5px" d="M161.6,338.4l-53,53c-24.1-24-42.3-54.5-51.7-89.7l72.4-19.4C135.2,304.3,146.6,323.4,161.6,338.4z"/>
    <path fill="#8000FF" stroke="#000" stroke-width="5px" d="M129.2,217.6c-5.5,20.5-5.9,42.7,0,64.7l-72.4,19.4c-9.4-35.2-8.9-70.7,0-103.5L129.2,217.6z"/>
    <path fill="#FF00FF" stroke="#000" stroke-width="5px" d="M161.6,161.6c-15.5,15.5-26.7,34.9-32.4,56l-72.5-19.4c9.1-33.9,27-64.9,51.8-89.7L161.6,161.6z"/>
    <path fill="#FF0080" stroke="#000" stroke-width="5px" d="M198.2,56.8l19.4,72.4c-22,5.9-41,17.3-56,32.3l-53-53C132.6,84.5,163,66.2,198.2,56.8z"/>
</svg>
